<?xml version="1.0" standalone="no"?>
<!DOCTYPE svg PUBLIC "-//W3C//DTD SVG 20010904//EN"
 "http://www.w3.org/TR/2001/REC-SVG-20010904/DTD/svg10.dtd">
<svg version="1.0" xmlns="http://www.w3.org/2000/svg"
 width="1200.000000pt" height="1200.000000pt" viewBox="0 0 1200.000000 1200.000000"
 preserveAspectRatio="xMidYMid meet">
<metadata>
Created by potrace 1.11, written by Peter Selinger 2001-2013
</metadata>
<g transform="translate(0.000000,1200.000000) scale(0.100000,-0.100000)"
fill="#000000" stroke="none">
<path d="M0 6000 l0 -6000 6000 0 6000 0 0 6000 0 6000 -6000 0 -6000 0 0
-6000z m6181 3610 l174 -100 5 -1037 5 -1037 345 -199 c190 -110 428 -247 530
-306 l185 -106 5 -830 5 -829 175 -101 175 -101 5 -413 5 -413 168 -98 c92
-53 172 -101 178 -107 6 -6 8 -166 7 -415 l-3 -407 -165 96 c-91 52 -171 98
-177 100 -10 4 -13 -83 -13 -413 l-1 -419 -342 -197 c-495 -284 -1398 -807
-1423 -823 -12 -8 -25 -10 -30 -6 -5 5 -245 145 -534 312 -289 167 -686 396
-883 510 l-358 207 1 417 c0 334 -2 416 -12 412 -7 -2 -87 -48 -178 -100
l-165 -96 -3 407 c-1 249 1 409 7 415 6 6 86 54 178 107 l168 98 3 415 2 415
180 104 180 103 2 825 3 825 185 106 c102 59 340 196 530 306 l345 199 5 1037
5 1037 170 99 c94 54 173 100 176 100 4 1 85 -44 180 -99z"/>
<path d="M5468 6512 c-92 -54 -167 -100 -168 -103 0 -3 79 -51 175 -106 l175
-101 0 204 c0 112 -3 204 -7 203 -5 0 -83 -44 -175 -97z"/>
<path d="M6186 6511 c-92 -53 -168 -101 -168 -106 0 -5 76 -53 168 -107 l169
-97 3 105 c1 58 1 150 0 204 l-3 99 -169 -98z"/>
<path d="M5818 5893 l-168 -97 -2 -208 -3 -208 -173 100 c-96 55 -176 100
-178 100 -2 0 -3 -93 -2 -206 l3 -206 170 -99 c94 -54 175 -99 182 -99 6 0 77
38 158 85 81 47 160 92 175 100 26 14 33 11 200 -85 95 -55 178 -100 184 -100
6 0 88 45 181 99 l170 99 3 206 c1 113 0 206 -2 206 -2 0 -82 -45 -178 -100
l-173 -100 -3 204 -2 204 -175 101 c-96 56 -180 101 -187 101 -7 0 -88 -44
-180 -97z"/>
</g>
</svg>
